<svg shape-rendering="geometricPrecision" xmlns="http://www.w3.org/2000/svg"  class="qrcode" viewBox="0 0 29 29" preserveAspectRatio="xMidYMid" width="1024" height="1024">
<rect fill="#FFFFFF" width="100%" height="100%"/>
<path class="modules" fill="#000000" d="M10 2 m0 0h1v1h-1z M12 2 m0 0h1v1h-1z M18 2 m0 0h1v1h-1z M12 3 m0 0h1v1h-1z M13 3 m0 0h1v1h-1z M14 3 m0 0h1v1h-1z M18 3 m0 0h1v1h-1z M10 4 m0 0h1v1h-1z M11 4 m0 0h1v1h-1z M14 4 m0 0h1v1h-1z M15 4 m0 0h1v1h-1z M16 4 m0 0h1v1h-1z M11 5 m0 0h1v1h-1z M12 5 m0 0h1v1h-1z M13 5 m0 0h1v1h-1z M14 5 m0 0h1v1h-1z M16 5 m0 0h1v1h-1z M17 5 m0 0h1v1h-1z M13 6 m0 0h1v1h-1z M14 6 m0 0h1v1h-1z M15 6 m0 0h1v1h-1z M16 6 m0 0h1v1h-1z M18 6 m0 0h1v1h-1z M10 7 m0 0h1v1h-1z M11 7 m0 0h1v1h-1z M13 7 m0 0h1v1h-1z M14 7 m0 0h1v1h-1z M18 7 m0 0h1v1h-1z M10 8 m0 0h1v1h-1z M12 8 m0 0h1v1h-1z M14 8 m0 0h1v1h-1z M16 8 m0 0h1v1h-1z M18 8 m0 0h1v1h-1z M13 9 m0 0h1v1h-1z M16 9 m0 0h1v1h-1z M17 9 m0 0h1v1h-1z M18 9 m0 0h1v1h-1z M2 10 m0 0h1v1h-1z M4 10 m0 0h1v1h-1z M8 10 m0 0h1v1h-1z M9 10 m0 0h1v1h-1z M11 10 m0 0h1v1h-1z M12 10 m0 0h1v1h-1z M13 10 m0 0h1v1h-1z M17 10 m0 0h1v1h-1z M18 10 m0 0h1v1h-1z M21 10 m0 0h1v1h-1z M24 10 m0 0h1v1h-1z M26 10 m0 0h1v1h-1z M3 11 m0 0h1v1h-1z M4 11 m0 0h1v1h-1z M5 11 m0 0h1v1h-1z M6 11 m0 0h1v1h-1z M7 11 m0 0h1v1h-1z M9 11 m0 0h1v1h-1z M10 11 m0 0h1v1h-1z M11 11 m0 0h1v1h-1z M12 11 m0 0h1v1h-1z M13 11 m0 0h1v1h-1z M16 11 m0 0h1v1h-1z M17 11 m0 0h1v1h-1z M18 11 m0 0h1v1h-1z M19 11 m0 0h1v1h-1z M20 11 m0 0h1v1h-1z M21 11 m0 0h1v1h-1z M23 11 m0 0h1v1h-1z M25 11 m0 0h1v1h-1z M26 11 m0 0h1v1h-1z M6 12 m0 0h1v1h-1z M8 12 m0 0h1v1h-1z M10 12 m0 0h1v1h-1z M13 12 m0 0h1v1h-1z M16 12 m0 0h1v1h-1z M17 12 m0 0h1v1h-1z M18 12 m0 0h1v1h-1z M19 12 m0 0h1v1h-1z M20 12 m0 0h1v1h-1z M22 12 m0 0h1v1h-1z M23 12 m0 0h1v1h-1z M24 12 m0 0h1v1h-1z M26 12 m0 0h1v1h-1z M3 13 m0 0h1v1h-1z M4 13 m0 0h1v1h-1z M10 13 m0 0h1v1h-1z M11 13 m0 0h1v1h-1z M12 13 m0 0h1v1h-1z M13 13 m0 0h1v1h-1z M14 13 m0 0h1v1h-1z M17 13 m0 0h1v1h-1z M20 13 m0 0h1v1h-1z M23 13 m0 0h1v1h-1z M4 14 m0 0h1v1h-1z M8 14 m0 0h1v1h-1z M9 14 m0 0h1v1h-1z M10 14 m0 0h1v1h-1z M11 14 m0 0h1v1h-1z M13 14 m0 0h1v1h-1z M14 14 m0 0h1v1h-1z M15 14 m0 0h1v1h-1z M17 14 m0 0h1v1h-1z
M20 14 m0 0h1v1h-1z M26 14 m0 0h1v1h-1z M3 15 m0 0h1v1h-1z M7 15 m0 0h1v1h-1z M10 15 m0 0h1v1h-1z M14 15 m0 0h1v1h-1z M17 15 m0 0h1v1h-1z M18 15 m0 0h1v1h-1z M19 15 m0 0h1v1h-1z M20 15 m0 0h1v1h-1z M21 15 m0 0h1v1h-1z M25 15 m0 0h1v1h-1z M26 15 m0 0h1v1h-1z M2 16 m0 0h1v1h-1z M3 16 m0 0h1v1h-1z M4 16 m0 0h1v1h-1z M7 16 m0 0h1v1h-1z M8 16 m0 0h1v1h-1z M9 16 m0 0h1v1h-1z M11 16 m0 0h1v1h-1z M12 16 m0 0h1v1h-1z M14 16 m0 0h1v1h-1z M15 16 m0 0h1v1h-1z M17 16 m0 0h1v1h-1z M20 16 m0 0h1v1h-1z M23 16 m0 0h1v1h-1z M24 16 m0 0h1v1h-1z M26 16 m0 0h1v1h-1z M4 17 m0 0h1v1h-1z M5 17 m0 0h1v1h-1z M6 17 m0 0h1v1h-1z M10 17 m0 0h1v1h-1z M11 17 m0 0h1v1h-1z M12 17 m0 0h1v1h-1z M13 17 m0 0h1v1h-1z M14 17 m0 0h1v1h-1z M17 17 m0 0h1v1h-1z M18 17 m0 0h1v1h-1z M21 17 m0 0h1v1h-1z M22 17 m0 0h1v1h-1z M23 17 m0 0h1v1h-1z M2 18 m0 0h1v1h-1z M3 18 m0 0h1v1h-1z M4 18 m0 0h1v1h-1z M6 18 m0 0h1v1h-1z M8 18 m0 0h1v1h-1z M9 18 m0 0h1v1h-1z M15 18 m0 0h1v1h-1z M18 18 m0 0h1v1h-1z M19 18 m0 0h1v1h-1z M20 18 m0 0h1v1h-1z M21 18 m0 0h1v1h-1z M22 18 m0 0h1v1h-1z M25 18 m0 0h1v1h-1z M10 19 m0 0h1v1h-1z M18 19 m0 0h1v1h-1z M22 19 m0 0h1v1h-1z M26 19 m0 0h1v1h-1z M10 20 m0 0h1v1h-1z M12 20 m0 0h1v1h-1z M13 20 m0 0h1v1h-1z M15 20 m0 0h1v1h-1z M18 20 m0 0h1v1h-1z M20 20 m0 0h1v1h-1z M22 20 m0 0h1v1h-1z M26 20 m0 0h1v1h-1z M12 21 m0 0h1v1h-1z M17 21 m0 0h1v1h-1z M18 21 m0 0h1v1h-1z M22 21 m0 0h1v1h-1z M25 21 m0 0h1v1h-1z M26 21 m0 0h1v1h-1z M11 22 m0 0h1v1h-1z M13 22 m0 0h1v1h-1z M14 22 m0 0h1v1h-1z M15 22 m0 0h1v1h-1z M17 22 m0 0h1v1h-1z M18 22 m0 0h1v1h-1z M19 22 m0 0h1v1h-1z M20 22 m0 0h1v1h-1z M21 22 m0 0h1v1h-1z M22 22 m0 0h1v1h-1z M26 22 m0 0h1v1h-1z M14 23 m0 0h1v1h-1z M18 23 m0 0h1v1h-1z M19 23 m0 0h1v1h-1z M22 23 m0 0h1v1h-1z M24 23 m0 0h1v1h-1z M25 23 m0 0h1v1h-1z M10 24 m0 0h1v1h-1z M11 24 m0 0h1v1h-1z M12 24 m0 0h1v1h-1z M14 24 m0 0h1v1h-1z M16 24 m0 0h1v1h-1z M19 24 m0 0h1v1h-1z M21 24 m0 0h1v1h-1z M22 24 m0 0h1v1h-1z M23 24 m0 0h1v1h-1z M25 24 m0 0h1v1h-1z M26 24 m0 0h1v1h-1z
M11 25 m0 0h1v1h-1z M12 25 m0 0h1v1h-1z M13 25 m0 0h1v1h-1z M14 25 m0 0h1v1h-1z M16 25 m0 0h1v1h-1z M18 25 m0 0h1v1h-1z M19 25 m0 0h1v1h-1z M20 25 m0 0h1v1h-1z M21 25 m0 0h1v1h-1z M22 25 m0 0h1v1h-1z M10 26 m0 0h1v1h-1z M12 26 m0 0h1v1h-1z M14 26 m0 0h1v1h-1z M15 26 m0 0h1v1h-1z M16 26 m0 0h1v1h-1z M17 26 m0 0h1v1h-1z M18 26 m0 0h1v1h-1z M23 26 m0 0h1v1h-1z M26 26 m0 0h1v1h-1z"/>
<path class="outer" fill="#000000" d="M2 2 m0 0h7.02v7.02h-7.02zm1.17 1.17v4.68h4.68v-4.68z"/>
<path class="inner" fill="#000000" d="M2 2 m2 2h3v3h-3z"/>
<path class="outer" fill="#000000" d="M2 20 m0 0h7.02v7.02h-7.02zm1.17 1.17v4.68h4.68v-4.68z"/>
<path class="inner" fill="#000000" d="M2 20 m2 2h3v3h-3z"/>
<path class="outer" fill="#000000" d="M20 2 m0 0h7.02v7.02h-7.02zm1.17 1.17v4.68h4.68v-4.68z"/>
<path class="inner" fill="#000000" d="M20 2 m2 2h3v3h-3z"/>
</svg>
